HIERARCHY
ROOT mixamorig:Hips
{
	OFFSET 0.000000 201.639420 0.000000
	CHANNELS 6 Xposition Yposition Zposition Xrotation Yrotation Zrotation
	JOINT mixamorig:Spine
	{
		OFFSET 0.006200 19.524994 -2.481800
		CHANNELS 3 Xrotation Yrotation Zrotation
		JOINT mixamorig:Spine1
		{
			OFFSET -0.000900 22.835007 -2.825400
			CHANNELS 3 Xrotation Yrotation Zrotation
			JOINT mixamorig:Spine2
			{
				OFFSET -0.020600 26.552490 -3.193300
				CHANNELS 3 Xrotation Yrotation Zrotation
				JOINT mixamorig:Neck
				{
					OFFSET -0.060000 30.701813 1.352200
					CHANNELS 3 Xrotation Yrotation Zrotation
					JOINT mixamorig:Head
					{
						OFFSET -0.087200 22.547607 3.670900
						CHANNELS 3 Xrotation Yrotation Zrotation
						JOINT mixamorig:HeadTop_End
						{
							OFFSET -0.830600 40.355194 7.893500
							CHANNELS 3 Xrotation Yrotation Zrotation
							End Site
							{
								OFFSET 0.000000 30.592346 0.000000
							}
						}
						JOINT mixamorig:RightEye
						{
							OFFSET -6.302100 18.118591 16.197100
							CHANNELS 3 Xrotation Yrotation Zrotation
							End Site
							{
								OFFSET 0.000000 30.592346 0.000000
							}
						}
						JOINT mixamorig:LeftEye
						{
							OFFSET 6.741500 18.382690 16.401899
							CHANNELS 3 Xrotation Yrotation Zrotation
							End Site
							{
								OFFSET 0.000000 30.592346 0.000000
							}
						}
					}
				}
				JOINT mixamorig:LeftShoulder
				{
					OFFSET 11.924900 18.230499 1.425400
					CHANNELS 3 Xrotation Yrotation Zrotation
					JOINT mixamorig:LeftArm
					{
						OFFSET 25.435989 -0.697632 -5.229300
						CHANNELS 3 Xrotation Yrotation Zrotation
						JOINT mixamorig:LeftForeArm
						{
							OFFSET 54.684776 0.000000 0.000000
							CHANNELS 3 Xrotation Yrotation Zrotation
							JOINT mixamorig:LeftHand
							{
								OFFSET 55.098175 0.000000 0.000000
								CHANNELS 3 Xrotation Yrotation Zrotation
								JOINT mixamorig:LeftHandMiddle1
								{
									OFFSET 23.369751 0.000000 0.000000
									CHANNELS 3 Xrotation Yrotation Zrotation
									JOINT mixamorig:LeftHandMiddle2
									{
										OFFSET 6.378677 0.000000 0.000000
										CHANNELS 3 Xrotation Yrotation Zrotation
										JOINT mixamorig:LeftHandMiddle3
										{
											OFFSET 6.148331 0.000000 0.000000
											CHANNELS 3 Xrotation Yrotation Zrotation
											JOINT mixamorig:LeftHandMiddle4
											{
												OFFSET 6.582504 0.000000 0.000000
												CHANNELS 3 Xrotation Yrotation Zrotation
												End Site
												{
													OFFSET -1.168900 6.395691 1.028606
												}
											}
										}
									}
								}
								JOINT mixamorig:LeftHandThumb1
								{
									OFFSET 7.235672 -3.848206 5.434273
									CHANNELS 3 Xrotation Yrotation Zrotation
									JOINT mixamorig:LeftHandThumb2
									{
										OFFSET 6.568451 -3.792297 3.792300
										CHANNELS 3 Xrotation Yrotation Zrotation
										JOINT mixamorig:LeftHandThumb3
										{
											OFFSET 6.063080 -3.500519 3.500518
											CHANNELS 3 Xrotation Yrotation Zrotation
											JOINT mixamorig:LeftHandThumb4
											{
												OFFSET 4.793182 -2.767334 2.767349
												CHANNELS 3 Xrotation Yrotation Zrotation
												End Site
												{
													OFFSET 0.101639 6.054260 1.275483
												}
											}
										}
									}
								}
								JOINT mixamorig:LeftHandIndex1
								{
									OFFSET 23.101074 -0.309540 4.992809
									CHANNELS 3 Xrotation Yrotation Zrotation
									JOINT mixamorig:LeftHandIndex2
									{
										OFFSET 6.226883 0.000000 0.000000
										CHANNELS 3 Xrotation Yrotation Zrotation
										JOINT mixamorig:LeftHandIndex3
										{
											OFFSET 6.094330 0.000000 0.000000
											CHANNELS 3 Xrotation Yrotation Zrotation
											JOINT mixamorig:LeftHandIndex4
											{
												OFFSET 5.482605 0.000000 0.000000
												CHANNELS 3 Xrotation Yrotation Zrotation
												End Site
												{
													OFFSET -1.427902 5.233032 0.797164
												}
											}
										}
									}
								}
								JOINT mixamorig:LeftHandRing1
								{
									OFFSET 22.299240 0.021149 -3.964172
									CHANNELS 3 Xrotation Yrotation Zrotation
									JOINT mixamorig:LeftHandRing2
									{
										OFFSET 6.321869 0.000000 0.000000
										CHANNELS 3 Xrotation Yrotation Zrotation
										JOINT mixamorig:LeftHandRing3
										{
											OFFSET 5.899796 0.000000 0.000000
											CHANNELS 3 Xrotation Yrotation Zrotation
											JOINT mixamorig:LeftHandRing4
											{
												OFFSET 6.517899 0.000000 0.000000
												CHANNELS 3 Xrotation Yrotation Zrotation
												End Site
												{
													OFFSET -1.637299 6.232208 0.980890
												}
											}
										}
									}
								}
								JOINT mixamorig:LeftHandPinky1
								{
									OFFSET 20.463791 -0.302338 -8.562233
									CHANNELS 3 Xrotation Yrotation Zrotation
									JOINT mixamorig:LeftHandPinky2
									{
										OFFSET 6.908646 0.000000 0.000000
										CHANNELS 3 Xrotation Yrotation Zrotation
										JOINT mixamorig:LeftHandPinky3
										{
											OFFSET 4.622849 0.000000 0.000000
											CHANNELS 3 Xrotation Yrotation Zrotation
											JOINT mixamorig:LeftHandPinky4
											{
												OFFSET 5.216080 0.000000 0.000000
												CHANNELS 3 Xrotation Yrotation Zrotation
												End Site
												{
													OFFSET -0.606308 5.116241 0.814926
												}
											}
										}
									}
								}
							}
						}
					}
				}
				JOINT mixamorig:RightShoulder
				{
					OFFSET -12.001300 18.284088 1.348900
					CHANNELS 3 Xrotation Yrotation Zrotation
					JOINT mixamorig:RightArm
					{
						OFFSET -25.308500 -0.751312 -5.164599
						CHANNELS 3 Xrotation Yrotation Zrotation
						JOINT mixamorig:RightForeArm
						{
							OFFSET -54.684429 0.000000 0.000000
							CHANNELS 3 Xrotation Yrotation Zrotation
							JOINT mixamorig:RightHand
							{
								OFFSET -55.150291 0.000000 0.000000
								CHANNELS 3 Xrotation Yrotation Zrotation
								JOINT mixamorig:RightHandMiddle1
								{
									OFFSET -23.317566 0.000000 0.000000
									CHANNELS 3 Xrotation Yrotation Zrotation
									JOINT mixamorig:RightHandMiddle2
									{
										OFFSET -6.378403 0.000000 0.000000
										CHANNELS 3 Xrotation Yrotation Zrotation
										JOINT mixamorig:RightHandMiddle3
										{
											OFFSET -6.148193 0.000000 0.000000
											CHANNELS 3 Xrotation Yrotation Zrotation
											JOINT mixamorig:RightHandMiddle4
											{
												OFFSET -6.583389 0.000000 0.000000
												CHANNELS 3 Xrotation Yrotation Zrotation
												End Site
												{
													OFFSET 1.171692 6.395905 1.029786
												}
											}
										}
									}
								}
								JOINT mixamorig:RightHandThumb1
								{
									OFFSET -7.190521 -3.860474 5.435846
									CHANNELS 3 Xrotation Yrotation Zrotation
									JOINT mixamorig:RightHandThumb2
									{
										OFFSET -6.567429 -3.791718 3.791708
										CHANNELS 3 Xrotation Yrotation Zrotation
										JOINT mixamorig:RightHandThumb3
										{
											OFFSET -6.062469 -3.500153 3.500166
											CHANNELS 3 Xrotation Yrotation Zrotation
											JOINT mixamorig:RightHandThumb4
											{
												OFFSET -4.792618 -2.767029 2.767022
												CHANNELS 3 Xrotation Yrotation Zrotation
												End Site
												{
													OFFSET -0.100327 6.053253 1.276754
												}
											}
										}
									}
								}
								JOINT mixamorig:RightHandIndex1
								{
									OFFSET -23.048981 -0.310791 4.992554
									CHANNELS 3 Xrotation Yrotation Zrotation
									JOINT mixamorig:RightHandIndex2
									{
										OFFSET -6.227539 0.000000 0.000000
										CHANNELS 3 Xrotation Yrotation Zrotation
										JOINT mixamorig:RightHandIndex3
										{
											OFFSET -6.095047 0.000000 0.000000
											CHANNELS 3 Xrotation Yrotation Zrotation
											JOINT mixamorig:RightHandIndex4
											{
												OFFSET -5.484772 0.000000 0.000000
												CHANNELS 3 Xrotation Yrotation Zrotation
												End Site
												{
													OFFSET 1.420593 5.237305 0.797056
												}
											}
										}
									}
								}
								JOINT mixamorig:RightHandRing1
								{
									OFFSET -22.246323 0.020569 -3.963762
									CHANNELS 3 Xrotation Yrotation Zrotation
									JOINT mixamorig:RightHandRing2
									{
										OFFSET -6.322128 0.000000 0.000000
										CHANNELS 3 Xrotation Yrotation Zrotation
										JOINT mixamorig:RightHandRing3
										{
											OFFSET -5.900024 0.000000 0.000000
											CHANNELS 3 Xrotation Yrotation Zrotation
											JOINT mixamorig:RightHandRing4
											{
												OFFSET -6.518356 0.000000 0.000000
												CHANNELS 3 Xrotation Yrotation Zrotation
												End Site
												{
													OFFSET 1.636398 6.232697 0.982186
												}
											}
										}
									}
								}
								JOINT mixamorig:RightHandPinky1
								{
									OFFSET -20.411011 -0.303314 -8.561701
									CHANNELS 3 Xrotation Yrotation Zrotation
									JOINT mixamorig:RightHandPinky2
									{
										OFFSET -6.907349 0.000000 0.000000
										CHANNELS 3 Xrotation Yrotation Zrotation
										JOINT mixamorig:RightHandPinky3
										{
											OFFSET -4.623840 0.000000 0.000000
											CHANNELS 3 Xrotation Yrotation Zrotation
											JOINT mixamorig:RightHandPinky4
											{
												OFFSET -5.218353 0.000000 0.000000
												CHANNELS 3 Xrotation Yrotation Zrotation
												End Site
												{
													OFFSET 0.602097 5.118835 0.816273
												}
											}
										}
									}
								}
							}
						}
					}
				}
			}
		}
	}
	JOINT mixamorig:LeftUpLeg
	{
		OFFSET 18.168400 -13.561905 -0.039000
		CHANNELS 3 Xrotation Yrotation Zrotation
		JOINT mixamorig:LeftLeg
		{
			OFFSET 0.577358 -80.825211 -3.695000
			CHANNELS 3 Xrotation Yrotation Zrotation
			JOINT mixamorig:LeftFoot
			{
				OFFSET -0.577356 -83.370262 -6.520700
				CHANNELS 3 Xrotation Yrotation Zrotation
				JOINT mixamorig:LeftToeBase
				{
					OFFSET 0.750401 -20.798306 25.135401
					CHANNELS 3 Xrotation Yrotation Zrotation
					JOINT mixamorig:LeftToe_End
					{
						OFFSET -0.000500 0.001200 19.917799
						CHANNELS 3 Xrotation Yrotation Zrotation
						End Site
						{
							OFFSET 0.000000 19.917805 0.000000
						}
					}
				}
			}
		}
	}
	JOINT mixamorig:RightUpLeg
	{
		OFFSET -18.162500 -13.585098 -0.041000
		CHANNELS 3 Xrotation Yrotation Zrotation
		JOINT mixamorig:RightLeg
		{
			OFFSET -0.595024 -80.945297 -3.631900
			CHANNELS 3 Xrotation Yrotation Zrotation
			JOINT mixamorig:RightFoot
			{
				OFFSET 0.595024 -83.218193 -6.561200
				CHANNELS 3 Xrotation Yrotation Zrotation
				JOINT mixamorig:RightToeBase
				{
					OFFSET -0.753601 -20.807106 25.115000
					CHANNELS 3 Xrotation Yrotation Zrotation
					JOINT mixamorig:RightToe_End
					{
						OFFSET 0.000299 0.001700 19.918200
						CHANNELS 3 Xrotation Yrotation Zrotation
						End Site
						{
							OFFSET 0.000000 19.918203 0.000000
						}
					}
				}
			}
		}
	}
}
MOTION
Frames: 4
Frame Time: 0.033333
9.587492 84.844452 -5.023048 4.973462 -2.393182 -6.356022 16.436570 0.422644 1.815555 32.858196 1.237117 3.283282 32.858182 1.237118 3.283282 -27.859566 2.009603 1.785537 7.014465 6.058935 -3.122451 -0.000000 0.000000 0.000000 -0.000000 0.000000 0.000000 -0.000000 0.000000 0.000000 -1.325404 5.894282 5.658547 -18.447738 -63.594013 -8.276003 -2.431780 -65.005854 -2.204497 -15.337217 11.608061 12.227122 -0.508786 7.377477 -23.005742 -0.193740 -1.181875 -27.763624 -0.000000 -0.000002 -0.000008 -0.000001 0.000002 -0.000001 14.206231 3.182542 1.430637 5.735091 11.697264 1.336297 -0.000012 0.000005 0.000035 -0.000001 -0.000000 -0.000002 -3.430954 14.270062 -32.374680 0.658622 1.382944 -16.020767 -0.000001 0.000000 -0.000004 -0.000001 0.000001 0.000003 2.898648 5.484385 -30.468538 -1.560010 -4.400843 -16.550318 -0.000000 0.000002 0.000002 0.000000 0.000001 -0.000000 5.564104 3.898888 -27.409129 -0.659261 -2.450031 -15.033711 -0.000008 0.000001 -0.000003 0.000001 0.000001 0.000000 -1.144394 -3.160422 -10.198649 -36.094821 11.277171 40.330952 -10.271786 65.636110 9.735747 54.162263 3.622590 31.313320 -2.247405 -4.576000 63.261745 -2.085453 3.148888 62.401817 -0.000003 0.000001 -0.000011 0.000001 -0.000001 -0.000000 -4.525777 -15.509644 8.438230 9.541020 -8.088586 5.946274 0.000001 0.000000 -0.000005 0.000000 -0.000001 -0.000002 1.612015 -9.168575 61.174617 8.126862 -2.598147 51.083432 -0.000004 -0.000002 0.000012 0.000001 -0.000000 0.000002 -7.200562 -5.860358 72.661233 -6.989645 -1.705102 62.394844 -0.000000 0.000001 -0.000009 0.000002 0.000001 -0.000002 -8.031394 -4.769396 72.828415 -11.296544 4.148636 57.071893 -0.000002 -0.000002 -0.000000 -0.000001 -0.000001 0.000005 -110.178697 -10.024220 21.943760 142.205044 -3.701725 -2.186912 -35.324075 -3.699075 8.155102 -0.154477 3.224741 -1.484749 0.000000 0.000000 -0.000000 -95.052983 -8.334504 -23.357457 148.708504 -2.669094 0.856177 -35.172565 -1.563343 1.207645 -24.781337 1.236977 -0.255162 -0.000000 0.000000 -0.000000 
9.277968 84.721069 -4.907478 5.071541 -2.267830 -6.423275 16.431367 0.218005 1.980732 32.849945 0.882334 3.667099 32.849897 0.882333 3.667095 -27.769731 2.117422 1.733492 6.112082 6.474138 -3.539173 -0.000001 0.000000 -0.000000 -0.000001 0.000000 -0.000000 -0.000001 0.000000 -0.000000 -1.326509 5.894535 5.676113 -17.904412 -61.949959 -8.466114 -2.440476 -65.670008 -2.224188 -15.109273 11.152913 14.699417 -0.790894 6.681058 -25.231233 -0.284322 -1.405955 -32.385028 -0.000001 0.000004 -0.000005 -0.000000 -0.000003 0.000002 14.277214 3.202817 1.242392 6.385867 12.817677 0.990365 -0.000009 0.000005 0.000033 -0.000002 -0.000000 0.000001 -2.686405 14.408755 -36.629707 0.663699 1.391073 -16.113205 -0.000002 0.000000 -0.000001 -0.000000 -0.000001 0.000001 3.033460 5.638139 -31.614511 -1.943046 -4.645031 -20.208877 0.000001 0.000001 0.000004 -0.000001 0.000003 0.000000 5.944132 4.687647 -27.317997 -0.798610 -2.834899 -17.262762 -0.000003 0.000000 0.000001 -0.000001 0.000000 0.000001 -1.130369 -2.072678 -7.897744 -27.539290 11.960039 37.250889 -8.649663 61.631891 7.965594 47.448993 4.978066 33.193131 -2.367889 -4.314794 58.784692 -1.924921 3.060827 59.694774 -0.000002 -0.000002 -0.000005 0.000001 0.000000 -0.000001 -5.783510 -13.966238 6.881168 7.129228 -4.074020 5.324010 0.000000 -0.000002 -0.000005 -0.000002 -0.000001 0.000002 0.902500 -8.641426 56.629850 7.907054 -2.738281 49.375455 -0.000004 -0.000003 0.000015 0.000001 0.000001 -0.000004 -6.325048 -5.916980 68.865642 -6.920105 -1.519465 60.626528 -0.000001 -0.000001 -0.000008 -0.000000 -0.000002 -0.000000 -6.655841 -5.183023 70.066321 -11.057395 4.325462 55.436786 -0.000003 0.000003 -0.000004 0.000001 -0.000003 -0.000002 -110.363850 -10.361020 22.219307 142.291910 -3.674358 -2.183565 -35.202962 -4.213125 8.008206 -0.154343 3.224752 -1.484763 -0.000000 -0.000002 0.000000 -95.392717 -8.483067 -22.807313 148.827008 -2.087109 0.897072 -34.614890 -2.857631 0.981931 -25.346706 1.234665 -0.196531 -0.000000 0.000000 0.000000 
9.047893 84.648071 -4.848280 5.218593 -2.105378 -6.429876 16.392263 -0.064960 2.105509 32.778027 0.364472 3.996651 32.778010 0.364472 3.996651 -27.749228 2.249412 1.626674 5.101923 6.920419 -4.041303 0.000001 -0.000000 -0.000000 0.000001 -0.000000 -0.000000 0.000001 -0.000000 -0.000000 -1.328532 5.915892 5.674959 -17.209201 -60.179137 -8.647429 -2.409119 -66.233827 -2.205253 -14.771782 11.254521 16.969252 -0.906326 6.418176 -27.168607 -0.445358 -1.713319 -39.022510 -0.000000 0.000001 -0.000006 -0.000000 0.000001 0.000001 14.365116 3.190718 0.908916 7.123145 14.042649 0.592974 -0.000014 0.000006 0.000027 0.000000 0.000001 -0.000001 -2.368545 14.226099 -39.469870 0.668596 1.396168 -16.177438 -0.000001 -0.000000 -0.000006 -0.000000 0.000001 -0.000001 3.133839 5.728398 -32.620020 -2.466347 -4.926752 -24.997700 0.000001 -0.000000 -0.000000 -0.000002 0.000002 -0.000001 6.493390 5.769905 -27.927344 -0.982698 -3.282723 -19.901723 -0.000003 -0.000001 -0.000002 0.000000 -0.000002 0.000002 -1.182623 -1.320471 -5.692445 -17.412321 14.585273 34.991472 -7.555641 57.983477 6.737898 33.519970 4.813788 33.984549 -2.391744 -4.070588 54.145013 -1.765689 2.963217 56.927974 -0.000003 0.000000 -0.000007 0.000002 -0.000001 0.000002 -7.084688 -12.243629 5.296928 4.812753 -0.191961 4.718160 0.000001 0.000002 -0.000010 0.000001 0.000001 -0.000002 0.044128 -7.939982 51.712493 7.586786 -2.885057 47.382665 -0.000003 -0.000001 0.000009 0.000001 0.000001 -0.000005 -5.519396 -5.991485 64.719212 -6.792091 -1.257745 58.240210 0.000002 0.000001 -0.000008 0.000000 -0.000003 0.000001 -5.278262 -5.659382 66.867327 -10.705923 4.549674 53.358305 -0.000002 0.000001 -0.000005 0.000001 -0.000001 -0.000002 -110.606028 -10.499922 22.425523 142.311650 -3.662668 -2.182708 -35.049771 -4.632656 7.975422 -0.154396 3.224750 -1.484754 -0.000000 -0.000002 -0.000000 -95.786149 -8.511764 -22.399245 148.909462 -1.628159 0.929732 -34.087555 -3.966870 0.874923 -25.811584 1.231943 -0.147850 0.000000 -0.000002 0.000000 
8.945549 84.673523 -4.829033 5.422030 -1.932161 -6.369071 16.312635 -0.415951 2.156510 32.629962 -0.304571 4.204819 32.629955 -0.304573 4.204822 -27.763589 2.404081 1.501342 4.102114 7.458293 -4.531323 0.000001 0.000000 0.000000 0.000001 0.000000 0.000000 0.000001 0.000000 0.000000 -1.331538 5.931974 5.610156 -16.379936 -58.418874 -8.800732 -2.317663 -66.589201 -2.127275 -14.296884 11.643653 19.043112 -0.785804 6.611870 -28.692061 -0.669239 -2.036274 -46.542637 -0.000003 0.000004 -0.000001 -0.000000 0.000001 0.000003 14.332145 2.994806 0.491060 8.039842 15.503652 0.089846 -0.000009 0.000004 0.000036 0.000002 -0.000000 -0.000001 -1.981262 14.098117 -42.264647 0.693789 1.445365 -16.938338 -0.000000 -0.000000 -0.000007 0.000000 0.000000 0.000002 3.287264 5.830420 -34.312555 -3.089861 -5.193615 -30.465246 -0.000003 0.000002 0.000007 -0.000003 -0.000001 -0.000002 7.120017 6.793054 -29.615195 -1.232900 -3.812583 -23.098481 -0.000004 -0.000002 0.000002 0.000000 0.000000 0.000000 -1.272081 -1.021013 -3.763397 -5.234057 20.106754 32.560844 -6.608420 54.357377 5.677980 14.080587 3.581178 32.253372 -2.164020 -4.067818 50.623525 -1.651312 2.886099 54.889921 -0.000002 -0.000005 -0.000009 0.000000 -0.000003 0.000005 -8.013897 -11.064089 4.279329 4.057189 0.826774 3.936031 0.000001 0.000001 -0.000012 -0.000002 0.000002 -0.000001 -0.622625 -7.417192 47.628869 7.209302 -2.975271 45.749444 -0.000001 -0.000001 0.000013 0.000001 0.000000 0.000001 -5.005718 -5.985169 61.864698 -6.599774 -0.972849 55.964313 0.000004 -0.000000 -0.000010 -0.000001 -0.000000 0.000002 -4.708188 -5.712997 64.545499 -10.284254 4.771983 51.335702 -0.000001 -0.000001 -0.000004 0.000001 0.000003 -0.000000 -110.847680 -10.392696 22.515633 142.244181 -3.668160 -2.184739 -34.926165 -4.871451 8.055008 -0.154365 3.224737 -1.484736 -0.000000 0.000000 -0.000000 -96.251989 -8.329908 -22.207291 148.931250 -1.288992 0.955122 -33.452638 -4.743413 0.894033 -26.239920 1.229829 -0.111374 -0.000000 -0.000000 -0.000000 
